<?xml version="1.0" encoding="utf-8"?>
<!-- Generator: Adobe Illustrator 16.0.0, SVG Export Plug-In . SVG Version: 6.00 Build 0)  -->
<!DOCTYPE svg PUBLIC "-//W3C//DTD SVG 1.1//EN" "http://www.w3.org/Graphics/SVG/1.1/DTD/svg11.dtd">
<svg version="1.1" id="Layer_1" xmlns="http://www.w3.org/2000/svg" xmlns:xlink="http://www.w3.org/1999/xlink" x="0px" y="0px"
	 width="512px" height="512px" viewBox="0 0 512 512" enable-background="new 0 0 512 512" xml:space="preserve">
<path fill="#F0565F" d="M76.622,384.638c-4.06,1.25-8.225,1.874-12.493,1.874c-15.615,0-23.423-7.756-23.423-23.268
	c0-14.68,7.808-22.019,23.423-22.019c4.269,0,8.433,0.624,12.493,1.874v2.811c-4.06-1.248-8.016-1.874-11.868-1.874
	c-13.846,0-20.769,6.402-20.769,19.208c0,13.638,6.923,20.457,20.769,20.457c3.852,0,7.808-0.624,11.868-1.874V384.638z"/>
<path fill="#F0565F" d="M86.157,386.199v-44.661h18.426c8.079,0,12.118,3.57,12.118,10.712c0,6.184-4.383,10.567-13.149,13.148
	l15.085,20.801h-4.497l-14.835-20.706v-2.218c9.162-1.354,13.742-4.945,13.742-10.775c0-5.371-2.999-8.058-8.995-8.058H89.436
	v41.757H86.157z"/>
<path fill="#F0565F" d="M131.73,386.199l20.208-44.661h3.904l20.301,44.661h-3.904l-6.559-14.991H146.69l0.969-2.811h16.771
	L153.687,344.1l-18.458,42.1H131.73z"/>
<path fill="#F0565F" d="M217.531,341.538v2.811h-26.047v17.802h24.985v2.812h-24.985v21.236h-3.28v-44.661H217.531z"/>
<path fill="#F0565F" d="M263.383,341.569v2.811H248.08v41.851h-3.28V344.38h-14.99v-2.811H263.383z"/>
<path fill="#F0565F" d="M320.394,384.325c-3.852,1.458-8.225,2.187-13.117,2.187c-16.032,0-24.048-7.756-24.048-23.268
	c0-14.68,8.016-22.019,24.048-22.019c4.893,0,9.266,0.729,13.117,2.187v7.495c-3.852-1.665-8.016-2.498-12.491-2.498
	c-10.724,0-16.085,4.945-16.085,14.835c0,10.723,5.361,16.084,16.085,16.084c4.476,0,8.64-0.833,12.491-2.498V384.325z"/>
<path fill="#F0565F" d="M388.669,386.199v-44.661h19.364c13.95,0,20.925,7.037,20.925,21.113c0,15.699-6.975,23.548-20.925,23.548
	H388.669z M406.783,379.016c9.266,0,13.898-5.454,13.898-16.364c0-9.286-4.633-13.93-13.898-13.93h-9.838v30.294H406.783z"/>
<path fill="#F0565F" d="M471.137,341.538v7.121h-21.112v11.243h20.051v7.402h-20.144v11.711h21.643v7.184h-29.763v-44.661H471.137z"
	/>
<g>
	<path fill="#F0565F" d="M340.981,363.744c0-10.224,4.612-15.335,13.836-15.335c6.123,0,10.157,2.374,12.112,7.11l7.667-3.849
		c-3.215-6.956-9.8-10.445-19.779-10.445c-14.949,0-22.425,7.568-22.425,22.706c0.137,3.078,0.573,5.823,1.278,8.272l7.683-3.856
		C341.114,366.943,340.981,365.419,340.981,363.744z"/>
	<path fill="#F0565F" d="M367.957,359.272c0.227,1.366,0.354,2.847,0.354,4.472c0,10.389-4.498,15.584-13.493,15.584
		c-6.282,0-10.42-2.416-12.424-7.235l-7.396,3.713c3.379,7.137,9.984,10.706,19.819,10.706c14.721,0,22.082-7.527,22.082-22.58
		c0-3.229-0.356-6.094-1.026-8.634L367.957,359.272z"/>
</g>
<g>
	<path fill="#F0565F" d="M292.746,192.09c-19.57-39.095-67.134-54.929-106.23-35.359c-39.096,19.571-54.925,67.137-35.355,106.231
		c0.034,0.069,0.074,0.136,0.108,0.205l141.575-70.869C292.809,192.231,292.779,192.159,292.746,192.09z"/>
</g>
<polygon fill="#F0565F" points="505.498,206.433 369.533,125.324 369.533,170.717 473.236,226.895 "/>
<path fill="#4C6A8D" d="M257.533,298.605c39.096-19.57,54.924-67.135,35.355-106.231l-141.587,70.874
	C170.873,302.345,218.437,318.177,257.533,298.605z"/>
<polygon fill="#4C6A8D" points="473.236,226.895 505.498,206.433 505.498,248.85 369.533,329.957 369.533,284.195 473.236,227.643 
	"/>
<polygon fill="#F0565F" points="6.697,206.433 142.662,125.324 142.662,170.717 38.958,226.895 "/>
<polygon fill="#4C6A8D" points="38.958,226.895 6.697,206.433 6.697,248.85 142.662,329.957 142.662,284.195 38.958,227.643 "/>
<path fill="#4C6A8D" d="M315.422,227.955l-13.635,98.021c-0.355,2.045,0.355,3.753,2.143,3.753h22.049
	c2.145,0,3.568-1.021,3.93-3.072l17.076-118.719L315.422,227.955z"/>
<g>
	<path fill="#F0565F" d="M355.869,125.972h-23.443c-1.781,0-2.855,1.026-3.211,3.069l-13.752,98.856l31.564-20.017l11.34-78.839
		C358.367,127.677,357.297,125.972,355.869,125.972z"/>
</g>
<g>
</g>
<g>
</g>
<g>
</g>
<g>
</g>
<g>
</g>
<g>
</g>
</svg>
